<?xml version="1.0" standalone="no"?>
<!DOCTYPE svg PUBLIC "-//W3C//DTD SVG 20010904//EN"
 "http://www.w3.org/TR/2001/REC-SVG-20010904/DTD/svg10.dtd">
<svg version="1.0" xmlns="http://www.w3.org/2000/svg"
 width="497.000000pt" height="497.000000pt" viewBox="0 0 497.000000 497.000000"
 preserveAspectRatio="xMidYMid meet">
<metadata>
Created by potrace 1.14, written by Peter Selinger 2001-2017
</metadata>
<g transform="translate(0.000000,497.000000) scale(0.100000,-0.100000)"
fill="#000000" stroke="none">
<path d="M1186 4614 c-39 -43 -75 -83 -80 -89 -6 -5 -28 -30 -50 -55 -21 -25
-59 -68 -85 -96 -25 -28 -71 -79 -101 -113 -30 -34 -73 -82 -95 -105 -22 -23
-65 -71 -95 -106 -30 -35 -66 -76 -80 -91 -14 -15 -50 -56 -80 -90 -30 -35
-71 -79 -90 -98 -19 -20 -45 -49 -57 -65 -33 -43 -157 -179 -234 -256 -77 -76
-81 -100 -30 -153 16 -18 51 -57 78 -87 26 -30 64 -72 84 -92 20 -21 49 -55
65 -75 16 -21 44 -54 64 -73 19 -20 60 -64 90 -99 30 -35 64 -73 75 -85 11
-11 47 -52 80 -91 33 -38 90 -104 126 -145 63 -70 135 -162 216 -272 24 -33
42 -48 57 -48 13 0 25 -3 28 -6 3 -3 55 -5 114 -5 60 1 647 3 1305 6 l1197 6
33 -34 c31 -31 99 -106 180 -201 19 -22 52 -59 74 -82 22 -23 65 -71 95 -105
30 -34 76 -85 101 -113 26 -28 63 -70 84 -93 l37 -42 -44 -47 c-24 -26 -58
-63 -75 -81 -18 -19 -46 -51 -62 -72 -17 -21 -47 -56 -68 -77 -44 -47 -105
-115 -183 -204 -30 -35 -66 -76 -80 -91 -14 -15 -52 -57 -85 -94 -33 -37 -81
-90 -108 -118 -26 -28 -47 -54 -47 -59 0 -4 -520 -8 -1155 -8 -1098 0 -1155 1
-1146 18 5 9 22 31 38 48 15 17 55 61 88 99 33 38 73 82 88 98 l29 30 952 -6
953 -7 69 76 c38 42 75 85 82 95 7 11 19 19 25 19 12 0 60 54 151 170 24 30
71 84 105 120 33 36 61 68 61 71 0 4 -23 31 -51 60 -28 30 -64 71 -80 91 -16
20 -44 51 -62 70 -18 18 -40 42 -48 53 -7 12 -31 34 -52 49 -28 22 -40 26 -50
17 -9 -7 -110 -12 -302 -13 l-289 -3 36 -40 c21 -22 46 -51 58 -65 12 -14 53
-59 91 -101 106 -115 102 -106 66 -156 l-30 -43 -977 0 -976 0 -35 -43 c-19
-23 -52 -67 -74 -97 -21 -30 -59 -78 -84 -106 -25 -27 -71 -78 -101 -112 -30
-35 -66 -75 -80 -91 -14 -15 -50 -56 -80 -90 -30 -35 -73 -83 -95 -106 -22
-23 -63 -69 -91 -101 -68 -77 -158 -179 -203 -229 -21 -22 -74 -82 -120 -132
l-82 -93 1804 0 1805 0 27 32 c15 18 58 67 96 109 37 41 77 86 88 100 10 14
36 43 58 65 21 22 63 68 93 103 30 34 73 82 95 105 22 23 65 71 95 106 30 35
66 76 80 91 14 15 50 56 80 90 30 35 71 79 90 98 19 20 45 49 57 65 33 43 157
179 234 256 77 76 81 100 30 153 -16 18 -51 57 -78 87 -26 30 -64 72 -84 92
-20 21 -49 55 -65 75 -16 21 -44 54 -64 73 -19 20 -60 64 -90 99 -30 35 -64
73 -75 85 -11 11 -47 53 -80 91 -33 39 -90 104 -126 145 -63 70 -135 162 -216
273 -24 32 -42 47 -57 47 -13 0 -25 3 -28 6 -3 3 -55 5 -114 5 -60 -1 -647 -3
-1305 -6 l-1197 -6 -33 34 c-31 31 -99 106 -180 201 -19 22 -52 59 -74 82 -22
23 -65 71 -95 105 -30 34 -76 85 -101 113 -26 28 -63 70 -84 93 l-37 42 44 47
c24 26 58 63 75 81 18 19 46 51 62 72 17 21 47 56 68 77 44 47 105 115 183
204 30 35 66 76 80 91 14 15 52 57 85 94 33 37 81 90 108 118 26 28 47 54 47
59 0 4 520 8 1155 8 1098 0 1155 -1 1146 -17 -5 -10 -22 -32 -38 -49 -15 -17
-55 -61 -88 -99 -33 -38 -73 -82 -88 -98 l-29 -30 -952 6 -953 7 -69 -76 c-38
-42 -75 -85 -82 -95 -7 -11 -19 -19 -25 -19 -12 0 -60 -54 -151 -170 -24 -30
-71 -84 -105 -120 -33 -36 -61 -68 -61 -71 0 -4 23 -31 51 -60 28 -30 64 -71
80 -91 16 -20 44 -51 62 -70 18 -18 40 -42 48 -53 7 -12 31 -34 52 -49 28 -22
40 -26 50 -17 9 7 110 12 302 13 l289 3 -36 40 c-21 22 -46 51 -58 65 -12 14
-53 59 -91 101 -106 115 -102 106 -66 156 l30 43 977 0 976 0 35 43 c19 23 52
67 74 97 21 30 59 78 84 106 25 27 71 78 101 112 30 35 66 75 80 91 14 15 50
56 80 90 30 35 73 83 95 106 22 23 63 69 91 101 65 75 156 177 203 229 20 22
76 84 124 138 l88 97 -1313 0 c-722 0 -1531 3 -1798 7 l-485 6 -69 -79z"/>
<path d="M4904 3527 c-40 -47 -46 -57 -37 -57 6 0 22 18 37 40 29 45 30 52 0
17z"/>
<path d="M40 3302 c0 -8 26 -32 50 -47 7 -4 5 3 -6 18 -19 26 -44 43 -44 29z"/>
<path d="M4910 1678 c0 -3 14 -17 30 -33 17 -16 30 -24 30 -18 0 7 -13 21 -30
33 -16 12 -30 20 -30 18z"/>
<path d="M111 1431 c-26 -37 -27 -46 -1 -24 11 10 20 23 20 29 0 7 6 15 13 17
8 4 9 6 0 6 -6 1 -21 -12 -32 -28z"/>
</g>
</svg>
